# xmcd CD database file
#
# Track frame offsets:
#	150
#	17463
#	32163
#	57323
#
# Disc length: 990 seconds
#
# Revision: 0
# Processed by: cddbd v1.5.1PL0 Copyright (c) Steve Scherf et al.
# Submitted via: Feurio! 1.68 - http://www.feurio.com
#
DISCID=2803dc04
DTITLE=Christian Lais - Für Immer
DYEAR=1900
DGENRE=Schlager
TTITLE0=Für Immer Radio Edit
TTITLE1=Heißgeliebt
TTITLE2=Für Immer Extended Version
TTITLE3=Für Immer Instrumental
EXTD=
EXTT0=
EXTT1=
EXTT2=
EXTT3=
PLAYORDER=
